<svg width="503" height="75" viewBox="0 0 503 75" fill="none" xmlns="http://www.w3.org/2000/svg">
<path d="M2 73.0002C2 73.0002 23.8839 58.0002 35.801 58.0002C56.3698 58.0002 53.4237 66.9685 72.1531 65.5002C97.6633 63.5002 103.403 37.0002 135.291 37.0002C161.439 37.0002 160.801 58.5002 179.934 60.5002C195.738 62.1522 198.14 54.5002 213.735 54.5002C229.679 54.5002 228.976 59.7318 248.811 62.003C269.276 64.3462 273.046 32.003 291.541 32.003C307.139 32.003 330.444 32.003 330.444 32.003C330.444 32.003 350.15 21.0002 363.607 21.0002C388.185 21.0002 377 8.00015 401.872 8.00017C428.02 8.00019 424.194 1.49994 436.949 2.50008C445.24 3.15016 457.902 24.5426 471.388 29.0002C480.954 32.1624 502 23.0002 502 23.0002" stroke="#6EDCB5" stroke-width="4"/>
</svg>
